<?xml version="1.0" encoding="UTF-8"?>
<svg version="1.1" xmlns="http://www.w3.org/2000/svg" width="72" height="89">
<path d="M0 0 C1.99609375 1.12109375 1.99609375 1.12109375 3.875 2.375 C4.56722656 2.79910156 5.25945313 3.22320313 5.97265625 3.66015625 C11.38761961 7.29374849 14.73419775 11.70981464 17.875 17.375 C18.38740234 18.26251953 18.38740234 18.26251953 18.91015625 19.16796875 C22.38737951 26.4943973 21.98382417 36.60141799 20.18359375 44.3515625 C16.49527173 54.32083456 10.09390556 61.17531242 0.875 66.375 C-7.67504654 69.99790108 -19.95005812 69.98470372 -28.6875 66.875 C-37.81208193 62.40710126 -44.41079843 54.99266462 -48.23046875 45.6796875 C-50.62944853 36.81708097 -50.6678892 24.92989595 -46.57421875 16.61328125 C-36.75768833 1.45190138 -17.73650136 -7.52552258 0 0 Z M-15.125 2.375 C-16.1079057 5.26961219 -17.08643701 8.16558079 -18.0625 11.0625 C-18.47918945 12.28743164 -18.47918945 12.28743164 -18.90429688 13.53710938 C-21.05884049 19.9488235 -22.25638435 25.3679495 -22.1875 32.1875 C-22.17847656 33.34894531 -22.16945313 34.51039062 -22.16015625 35.70703125 C-22.14855469 36.58746094 -22.13695313 37.46789063 -22.125 38.375 C-13.42589666 36.37507514 -13.42589666 36.37507514 -7.125 30.375 C-6.71357248 27.2595108 -6.71357248 27.2595108 -8.125 24.375 C-11.70072848 21.31704503 -11.70072848 21.31704503 -16.125 20.375 C-16.125 19.715 -16.125 19.055 -16.125 18.375 C-15.3825 18.313125 -14.64 18.25125 -13.875 18.1875 C-10.3064261 17.13314862 -9.20254772 15.37590227 -7.125 12.375 C-7.76421965 9.89872901 -7.76421965 9.89872901 -9.125 7.375 C-11.64872901 6.01421965 -11.64872901 6.01421965 -14.125 5.375 C-14.125 4.715 -14.125 4.055 -14.125 3.375 C-12.68489519 3.63162245 -11.2479313 3.90590821 -9.8125 4.1875 C-9.01199219 4.33832031 -8.21148437 4.48914063 -7.38671875 4.64453125 C-4.82779275 5.47098922 -3.73433817 6.23600623 -2.125 8.375 C-1.6875 11.8125 -1.6875 11.8125 -2.125 15.375 C-4.125 17.8125 -4.125 17.8125 -6.125 19.375 C-5.34125 19.7875 -4.5575 20.2 -3.75 20.625 C-0.98421572 22.46885619 -0.02654289 23.2195999 0.875 26.375 C0.79284115 30.23646588 0.14057016 32.02090645 -2.1875 35.125 C-8.22174113 39.74697193 -14.82856408 39.67901816 -22.125 39.375 C-22.125 40.365 -22.125 41.355 -22.125 42.375 C-18.51863767 43.50296398 -15.15355996 43.48916035 -11.390625 43.47265625 C-10.09511719 43.46943359 -8.79960938 43.46621094 -7.46484375 43.46289062 C-6.10156183 43.45453598 -4.73828058 43.44607104 -3.375 43.4375 C-1.99609535 43.43248168 -0.61718896 43.42791935 0.76171875 43.42382812 C4.13285659 43.41204093 7.50390628 43.39558635 10.875 43.375 C10.215 45.355 9.555 47.335 8.875 49.375 C10.195 49.375 11.515 49.375 12.875 49.375 C16.85762 40.1829708 18.73285632 32.03152325 15.4375 22.3125 C11.45178827 13.48196553 4.86052667 6.87783243 -4.125 3.375 C-7.78696813 2.17030024 -11.29468114 2.30134002 -15.125 2.375 Z M-36.37109375 11.44921875 C-43.07355812 18.80849477 -45.63387105 26.37287906 -45.4375 36.27734375 C-44.5952967 44.625684 -40.80954704 50.43206446 -35.125 56.375 C-33.145 55.88 -33.145 55.88 -31.125 55.375 C-32.23875 54.1684375 -32.23875 54.1684375 -33.375 52.9375 C-36.58396624 49.1251384 -38.24694121 44.96581038 -40.125 40.375 C-35.505 41.035 -30.885 41.695 -26.125 42.375 C-26.09921875 41.15425781 -26.0734375 39.93351562 -26.046875 38.67578125 C-25.69809979 27.3336576 -24.69632013 17.44074581 -19.4921875 7.14453125 C-17.97744841 4.59087078 -17.97744841 4.59087078 -18.125 2.375 C-25.00259525 2.375 -31.56424518 6.91427272 -36.37109375 11.44921875 Z M-33.125 46.375 C-30.98393306 50.53818571 -28.69474832 54.7556079 -24.125 56.375 C-19.85824407 56.07855714 -15.87327574 55.09012908 -11.7644043 53.92626953 C-9.80807198 53.37374941 -7.84384589 52.86925363 -5.87304688 52.37109375 C-0.92857269 51.08333992 -0.92857269 51.08333992 3.875 49.375 C4.205 48.385 4.535 47.395 4.875 46.375 C3.02261719 46.50068359 3.02261719 46.50068359 1.1328125 46.62890625 C-10.39185902 47.34433332 -21.6157136 47.27850678 -33.125 46.375 Z M-3.125 54.375 C-3.125 54.705 -3.125 55.035 -3.125 55.375 C-1.14513918 55.26152381 0.83391598 55.1339065 2.8125 55 C4.46572266 54.89558594 4.46572266 54.89558594 6.15234375 54.7890625 C7.50005859 54.58410156 7.50005859 54.58410156 8.875 54.375 C9.205 53.715 9.535 53.055 9.875 52.375 C5.22394377 52.08430899 1.33035765 53.16676742 -3.125 54.375 Z M-13.375 57.25 C-18.36818781 58.88249658 -22.89831038 59.96506356 -28.125 60.375 C-27.465 61.035 -26.805 61.695 -26.125 62.375 C-18.116501 62.21797061 -10.59934813 59.01243274 -3.125 56.375 C-6.99999867 54.88895682 -9.54678379 55.93461765 -13.375 57.25 Z M-6.5 59.8125 C-15.64842718 62.59917961 -15.64842718 62.59917961 -20.125 63.375 C-20.125 63.705 -20.125 64.035 -20.125 64.375 C-12.02780347 64.87585752 -5.29659601 64.44389413 1.875 60.375 C3.6079914 58.83132091 3.6079914 58.83132091 4.875 57.375 C0.84720262 57.375 -2.68536253 58.64297854 -6.5 59.8125 Z " fill="#AFD13C" transform="translate(50.125,10.625)"/>
<path d="M0 0 C1.31360756 3.94082269 0.02493552 6.32508317 -1.3125 10.0625 C-4.31276078 18.92188719 -5.27980097 27.71265725 -6 37 C2.05343941 34.48885202 2.05343941 34.48885202 8 29 C8.40542699 25.92911143 8.40542699 25.92911143 7 23 C4.75877412 21.26038182 2.59350801 20.22602197 0 19 C0 18.34 0 17.68 0 17 C0.94875 16.608125 1.8975 16.21625 2.875 15.8125 C6.34127338 13.80206144 6.9802693 12.77300358 8 9 C5.28395285 6.12579877 5.28395285 6.12579877 2 4 C2 3.34 2 2.68 2 2 C9.95946422 2.34014804 9.95946422 2.34014804 13.5625 4.625 C15.57534339 7.95056734 15.47751931 10.1798455 15 14 C13.5 16.4375 13.5 16.4375 12 18 C12.804375 18.70125 13.60875 19.4025 14.4375 20.125 C17.30829846 23.34589583 18.08745867 24.7145253 18 29 C15.76940434 33.37539918 13.57217554 36.15167372 9 38 C3.89749133 38.84282509 -0.99126567 39.55565396 -6 38 C-6 39.32 -6 40.64 -6 42 C-7.32 41.67 -8.64 41.34 -10 41 C-10.55808879 26.31916444 -9.51393592 14.0241556 -2 1 C-1.34 0.67 -0.68 0.34 0 0 Z " fill="#FEFEFE" transform="translate(34,12)"/>
<path d="M0 0 C2.0625 0.4375 2.0625 0.4375 4 1 C4.01401855 2.40693115 4.01401855 2.40693115 4.02832031 3.84228516 C4.07249438 7.34286324 4.13417667 10.84224303 4.20751953 14.34228516 C4.23563782 15.85323938 4.25689771 17.36433821 4.27099609 18.87548828 C4.29255449 21.05576103 4.33926316 23.23431219 4.390625 25.4140625 C4.4220459 27.37786865 4.4220459 27.37786865 4.45410156 29.38134766 C5.08198421 33.54345706 6.37678372 35.74645075 9 39 C12.47263273 40.73631636 16.21193013 40.60190402 20 40 C22.75569447 37.81840855 24.43588747 36.12822506 26 33 C26.42008973 29.30321041 26.10222501 27.22667284 24.5625 23.8125 C21.17116514 20.0903032 17.79731501 19.16857673 13 18 C13 16.68 13 15.36 13 14 C19.06966268 13.58140257 22.20232338 13.85655201 27 18 C30.46909068 22.21916433 31.90714902 25.52179247 32 31 C31.13162817 35.85119265 29.79321817 39.72704866 26 43 C21.08741786 46.27505476 16.75611241 46.68000662 11 46 C5.68860046 44.18811907 2.64384224 40.88093952 0 36 C-1.25275193 32.32268332 -1.12938938 28.72186538 -1.1328125 24.86328125 C-1.13376923 24.18323532 -1.13472595 23.50318939 -1.13571167 22.80253601 C-1.13639007 21.3712047 -1.13455955 19.93987026 -1.13037109 18.50854492 C-1.12499306 16.30966372 -1.13034022 14.11098446 -1.13671875 11.91210938 C-1.1360584 10.52083288 -1.13477812 9.12955651 -1.1328125 7.73828125 C-1.13168457 6.47024658 -1.13055664 5.20221191 -1.12939453 3.89575195 C-1 1 -1 1 0 0 Z " fill="#FFFFFF" transform="translate(193,23)"/>
<path d="M0 0 C0.99 0 1.98 0 3 0 C4.48717831 2.97435661 4.1471836 5.70405589 4.17578125 9.01953125 C4.19898514 10.44858235 4.22310271 11.87761885 4.24804688 13.30664062 C4.28311516 15.55812264 4.31247951 17.80906953 4.32592773 20.06079102 C4.34145409 22.23519703 4.38169301 24.40804079 4.42578125 26.58203125 C4.44036377 27.88374268 4.45494629 29.1854541 4.4699707 30.52661133 C5.07880074 34.51639711 6.18215492 36.1689828 9 39 C12.21355911 40.60677955 15.51438483 40.46831682 19 40 C22.67552256 38.00243339 23.77375004 36.49963533 25.5 32.6875 C26.13145609 28.03051132 25.51245442 25.95901909 23 22 C19.58991365 20.03816375 19.58991365 20.03816375 16 19 C15.01 18.67 14.02 18.34 13 18 C13 16.68 13 15.36 13 14 C18.79836069 13.52666443 22.57019279 14.30483904 27 18 C30.73846471 22.79290347 31.65343382 26.57584862 31.38671875 32.63671875 C30.59787926 37.4574045 27.94826487 40.14424878 24.4375 43.3125 C20.17757353 46.26167987 16.04449435 46.51787585 11 46 C5.73405656 44.14143173 3.20604232 41.39685804 0 37 C-1.18475859 33.44572423 -1.14345718 30.22137922 -1.1328125 26.5234375 C-1.13376923 25.79758453 -1.13472595 25.07173157 -1.13571167 24.32388306 C-1.13639134 22.79241855 -1.13455189 21.26095114 -1.13037109 19.72949219 C-1.12500431 17.37688799 -1.13033116 15.02447338 -1.13671875 12.671875 C-1.13605823 11.18489541 -1.13477762 9.69791594 -1.1328125 8.2109375 C-1.13483673 7.50367523 -1.13686096 6.79641296 -1.13894653 6.06771851 C-1.11496243 1.11496243 -1.11496243 1.11496243 0 0 Z " fill="#FFFFFF" transform="translate(85,23)"/>
<path d="M0 0 C4.90946693 2.32083891 7.35714805 5.30159653 10 10 C10.85799014 12.76374177 11.11952091 15.22323944 11.09765625 18.109375 C11.09443359 18.86347656 11.09121094 19.61757813 11.08789062 20.39453125 C11.07532227 21.56048828 11.07532227 21.56048828 11.0625 22.75 C11.05798828 23.54277344 11.05347656 24.33554687 11.04882812 25.15234375 C11.03708565 27.10159508 11.01915146 29.05080738 11 31 C9.0625 31.5625 9.0625 31.5625 7 32 C4.71283483 29.71283483 5.69758884 23.15121852 5.65820312 19.87695312 C5.46843324 14.47954452 4.59297962 11.27957869 1 7 C-1.91354542 5.2365383 -3.59799234 4.99162484 -7 5.0625 C-10.77036448 6.2407389 -12.45989992 8.02445419 -15 11 C-16.41000664 13.82001327 -16.24548451 15.87007255 -16 19 C-14.33237678 22.49406769 -13.25993978 23.82670681 -10 26 C-7.67891331 26.70812814 -5.34622853 27.38024152 -3 28 C-3 29.32 -3 30.64 -3 32 C-8.87055806 32.47922923 -12.45204666 31.57982466 -17 28 C-20.68632884 24.21914991 -21.3036138 21.11871131 -21.5 16 C-21.31000458 10.88279006 -20.62833663 7.81930172 -17 4 C-11.88316413 -0.74243324 -6.65547173 -0.97203611 0 0 Z " fill="#FFFFFF" transform="translate(152,37)"/>
<path d="M0 0 C5.07444281 0.13180371 8.50305698 0.97540778 12.3125 4.375 C16.40365076 10.11181998 16.83646607 15.5153112 16.5625 22.375 C16.54445312 23.24511719 16.52640625 24.11523438 16.5078125 25.01171875 C16.46118436 27.13329907 16.38946077 29.25430335 16.3125 31.375 C14.375 31.9375 14.375 31.9375 12.3125 32.375 C10.78627468 30.84877468 11.18552142 29.45655113 11.171875 27.33203125 C11.14287109 26.09163086 11.14287109 26.09163086 11.11328125 24.82617188 C11.07980732 23.08681511 11.06122763 21.34709872 11.05859375 19.60742188 C10.93705127 15.47177908 10.72074806 12.27685684 8.203125 8.88671875 C5.01028466 5.75449861 5.01028466 5.75449861 -1.6875 4.375 C-1.6875 13.285 -1.6875 22.195 -1.6875 31.375 C-3.0075 31.705 -4.3275 32.035 -5.6875 32.375 C-8.02466009 30.03783991 -6.85912619 24.18667112 -6.87304688 21.07617188 C-6.87296631 20.3973999 -6.87288574 19.71862793 -6.87280273 19.01928711 C-6.87498734 16.94949736 -6.89313491 14.88024207 -6.91210938 12.81054688 C-6.91404297 11.51310547 -6.91597656 10.21566406 -6.91796875 8.87890625 C-6.92207764 7.68080322 -6.92618652 6.4827002 -6.93041992 5.24829102 C-6.52004777 0.39435144 -4.37669528 0.06702443 0 0 Z " fill="#FFFFFF" transform="translate(172.6875,36.625)"/>
<path d="M0 0 C1.32 0 2.64 0 4 0 C4.08302368 0.97610229 4.08302368 0.97610229 4.16772461 1.97192383 C4.42053693 4.91912099 4.67895326 7.8658006 4.9375 10.8125 C5.02451172 11.83666016 5.11152344 12.86082031 5.20117188 13.91601562 C5.28818359 14.89892578 5.37519531 15.88183594 5.46484375 16.89453125 C5.543396 17.80050049 5.62194824 18.70646973 5.70288086 19.63989258 C5.94046098 22.14680749 5.94046098 22.14680749 7 25 C10.59264452 26.19754817 13.22717474 26.33094958 17 26 C19.90717073 23.78136971 20.83981643 22.48055071 22 19 C22.14573058 17.52034074 22.24663268 16.03596157 22.31640625 14.55078125 C22.35830078 13.70322266 22.40019531 12.85566406 22.44335938 11.98242188 C22.48267578 11.10134766 22.52199219 10.22027344 22.5625 9.3125 C22.60568359 8.41982422 22.64886719 7.52714844 22.69335938 6.60742188 C22.79935353 4.40509892 22.90142051 2.20266527 23 0 C24.32 0 25.64 0 27 0 C27.1753878 3.85358472 27.28121462 7.70613439 27.375 11.5625 C27.45041016 13.19155273 27.45041016 13.19155273 27.52734375 14.85351562 C27.62462407 20.18771985 27.66007948 23.98481454 24.1640625 28.21484375 C21.03131892 31.3908949 18.0807427 32.16833487 13.6875 32.3125 C9.06957302 32.25242941 6.52394966 31.10443184 3 28 C0.39889852 24.3655578 -0.36754701 21.93030514 -0.29296875 17.48046875 C-0.28330078 16.45888672 -0.27363281 15.43730469 -0.26367188 14.38476562 C-0.23853516 13.32966797 -0.21339844 12.27457031 -0.1875 11.1875 C-0.17396484 10.11306641 -0.16042969 9.03863281 -0.14648438 7.93164062 C-0.11122577 5.28724545 -0.06194366 2.64388252 0 0 Z " fill="#FFFFFF" transform="translate(228,37)"/>
<path d="M0 0 C2.475 0.495 2.475 0.495 5 1 C5 10.9 5 20.8 5 31 C3.68 31.33 2.36 31.66 1 32 C0 31 0 31 -0.11352539 28.04077148 C-0.10828857 26.74727783 -0.10305176 25.45378418 -0.09765625 24.12109375 C-0.0962413 23.4344313 -0.09482635 22.74776886 -0.09336853 22.04029846 C-0.08775479 19.83932199 -0.07520007 17.63844591 -0.0625 15.4375 C-0.05748676 13.94856917 -0.05292355 12.45963676 -0.04882812 10.97070312 C-0.03778093 7.31376925 -0.02050713 3.65689442 0 0 Z " fill="#FFFFFF" transform="translate(121,37)"/>
<path d="M0 0 C2.5625 -0.25 2.5625 -0.25 5 0 C6 1 6 1 6.0625 3.5625 C6.041875 4.366875 6.02125 5.17125 6 6 C3.625 7.0625 3.625 7.0625 1 8 C-1 7 -1 7 -1.75 5.125 C-2 3 -2 3 0 0 Z " fill="#AFD13C" transform="translate(121,23)"/>
</svg>
